<svg width="22" height="22" viewBox="0 0 22 22" fill="none" xmlns="http://www.w3.org/2000/svg">
    <circle cx="11" cy="11" r="11" fill="#BB8113"/>
    <path d="M10.696 17 7.5 11.916v-.678h.372c.597 0 1.099-.051 1.505-.154.417-.103.744-.272.98-.508.237-.237.378-.56.423-.971H7.5v-.986h3.263c-.079-.38-.236-.688-.473-.924-.237-.247-.558-.427-.964-.54-.394-.113-.88-.169-1.454-.169H7.5V6h7v.986h-3.196c.26.195.474.426.643.693.169.267.276.58.321.94H14.5v.986h-2.198c-.079.75-.395 1.335-.947 1.756-.541.411-1.262.673-2.164.786L12.42 17h-1.725z" fill="#fff"/>
</svg>
