<svg width="20" height="20" viewBox="0 0 20 20" fill="none" xmlns="http://www.w3.org/2000/svg">
    <g clip-path="url(#0bz9lmxcpa)" fill="#F5E544">
        <path d="M10 13.706c-.56 0-1.028.469-1.028 1.028S9.44 15.762 10 15.762c.538 0 1.028-.469 1.003-1.003A1.004 1.004 0 0 0 10 13.706z"/>
        <path d="M19.513 17.349a3.51 3.51 0 0 0 .008-3.552l-6.438-11.15a3.498 3.498 0 0 0-3.08-1.789 3.51 3.51 0 0 0-3.079 1.785L.478 13.805a3.538 3.538 0 0 0 .012 3.573 3.518 3.518 0 0 0 3.071 1.763h12.86a3.54 3.54 0 0 0 3.092-1.792zm-1.398-.806c-.357.617-.99.983-1.697.983H3.558a1.916 1.916 0 0 1-1.678-.962 1.945 1.945 0 0 1-.004-1.962L8.322 3.444c.35-.612.975-.974 1.682-.974.703 0 1.332.366 1.681.979l6.443 11.158a1.92 1.92 0 0 1-.012 1.936z"/>
        <path d="M9.745 6.49c-.49.14-.794.585-.794 1.123.025.325.046.654.07.979l.21 3.688c.025.419.35.723.769.723.42 0 .748-.325.769-.748 0-.255 0-.49.024-.748.046-.794.095-1.587.14-2.38.025-.515.07-1.029.095-1.542 0-.185-.025-.35-.095-.514a1.03 1.03 0 0 0-1.188-.58z"/>
    </g>
    <defs>
        <clipPath id="0bz9lmxcpa">
            <path fill="#fff" d="M0 0h20v20H0z"/>
        </clipPath>
    </defs>
</svg>
