<svg xmlns="http://www.w3.org/2000/svg" width="18" height="18" viewBox="0 0 18 18" fill="none">
    <path d="M9 1.5c.122 0 .242.027.359.08.117.054.22.123.307.206l6.548 6.548a.89.89 0 0 1 .213.33c.044.121.068.248.073.38a.821.821 0 0 1-.08.359c-.054.112-.123.21-.206.293l-6.518 6.518a.947.947 0 0 1-1.055.205 1.129 1.129 0 0 1-.307-.205L1.786 9.667a1.022 1.022 0 0 1-.205-.3A.87.87 0 0 1 1.5 9a.998.998 0 0 1 .286-.696l4.49-4.49 1.699 1.7c-.059.141-.088.29-.088.446 0 .313.112.582.337.806l.058.059c.01.01.022.017.037.022.014.005.03.007.044.007.014 0 .039.01.073.03v4.152a.396.396 0 0 0-.146.103c-.04.044-.083.088-.132.132a1.633 1.633 0 0 0-.3.402c-.074.142-.11.306-.11.491 0 .166.031.32.095.462.063.141.149.268.256.38.108.113.235.198.381.257.146.058.303.09.469.095.166 0 .324-.027.476-.08.151-.054.28-.13.388-.228a1.138 1.138 0 0 0 .366-.842 1.22 1.22 0 0 0-.044-.322 1.103 1.103 0 0 0-.132-.3 1.743 1.743 0 0 0-.205-.264.978.978 0 0 0-.256-.198V7.088l1.553 1.553a1.139 1.139 0 0 0-.088.44 1.122 1.122 0 0 0 .337.813c.107.107.227.188.359.241.132.054.283.086.454.095a1.122 1.122 0 0 0 .813-.336c.107-.108.188-.228.241-.36.054-.131.086-.283.096-.453a1.105 1.105 0 0 0-.337-.806 1.186 1.186 0 0 0-.36-.25 1.116 1.116 0 0 0-.828-.03l-1.661-1.661c.044-.122.066-.249.066-.38a1.122 1.122 0 0 0-.337-.814 1.083 1.083 0 0 0-.36-.242 1.296 1.296 0 0 0-.453-.087c-.118 0-.24.02-.367.058L6.942 3.141l1.362-1.355A.947.947 0 0 1 9 1.5z" fill="#000000"/>
</svg>