<svg xmlns="http://www.w3.org/2000/svg" width="18" height="18" viewBox="0 0 18 18" fill="none">
    <path fill-rule="evenodd" clip-rule="evenodd" d="M15.825 6.003C15.784 6 15.738 6 15.69 6h-1.894c-1.55 0-2.877 1.221-2.877 2.813 0 1.591 1.327 2.812 2.877 2.812h1.894c.048 0 .094 0 .136-.003a1.316 1.316 0 0 0 1.234-1.221c.003-.045.003-.094.003-.139v-2.9c0-.044 0-.093-.003-.138a1.316 1.316 0 0 0-1.233-1.221h-.002zm-2.196 3.56a.737.737 0 0 0 .722-.75.737.737 0 0 0-.722-.75c-.4 0-.723.335-.723.75 0 .413.323.75.723.75z" fill="#000000"/>
    <path fill-rule="evenodd" clip-rule="evenodd" d="M15.688 12.75a.164.164 0 0 1 .166.209c-.15.534-.389.99-.772 1.372-.562.563-1.274.81-2.153.93-.855.114-1.946.114-3.325.114H8.021c-1.379 0-2.471 0-3.325-.115-.88-.118-1.591-.367-2.153-.928-.56-.562-.81-1.274-.928-2.153-.115-.855-.115-1.946-.115-3.325v-.083c0-1.379 0-2.471.115-3.326.118-.879.367-1.59.928-2.153.562-.56 1.274-.81 2.153-.928.855-.114 1.946-.114 3.325-.114h1.583c1.379 0 2.471 0 3.325.115.88.118 1.591.367 2.153.928.383.384.622.84.772 1.373a.165.165 0 0 1-.165.209h-1.893c-2.128 0-4.003 1.68-4.003 3.938 0 2.257 1.875 3.937 4.003 3.937h1.893zM4.313 5.25a.563.563 0 1 0 0 1.125h3a.563.563 0 1 0 0-1.125h-3z" fill="#000000"/>
</svg>