<svg width="21" height="20" viewBox="0 0 21 20" fill="none" xmlns="http://www.w3.org/2000/svg">
    <path fill-rule="evenodd" clip-rule="evenodd" d="M5.708 5.833a4.798 4.798 0 0 0 4.792 4.791 4.798 4.798 0 0 0 4.792-4.791A4.798 4.798 0 0 0 10.5 1.04a4.798 4.798 0 0 0-4.792 4.792zm1.25 0A3.55 3.55 0 0 1 10.5 2.29a3.55 3.55 0 0 1 3.542 3.542A3.55 3.55 0 0 1 10.5 9.374a3.55 3.55 0 0 1-3.542-3.541zm10.075 12.5a.63.63 0 0 0 .625.625.63.63 0 0 0 .625-.625c0-3.558-3.491-6.458-7.783-6.458s-7.783 2.9-7.783 6.458a.63.63 0 0 0 .625.625.63.63 0 0 0 .625-.625c0-2.875 2.933-5.208 6.533-5.208 3.6 0 6.533 2.333 6.533 5.208z" fill="url(#zl0lg6znja)"/>
    <path fill-rule="evenodd" clip-rule="evenodd" d="M10.5 10.725a4.898 4.898 0 0 1-4.892-4.892A4.898 4.898 0 0 1 10.5.941a4.898 4.898 0 0 1 4.892 4.892 4.898 4.898 0 0 1-4.892 4.892zm0-8.334a3.45 3.45 0 0 0-3.442 3.442A3.45 3.45 0 0 0 10.5 9.275a3.45 3.45 0 0 0 3.442-3.442A3.45 3.45 0 0 0 10.5 2.391zm7.158 16.667a.73.73 0 0 1-.725-.725c0-2.8-2.866-5.108-6.433-5.108-3.567 0-6.433 2.309-6.433 5.108a.73.73 0 0 1-.725.725.73.73 0 0 1-.725-.725c0-3.63 3.554-6.558 7.883-6.558 4.329 0 7.883 2.928 7.883 6.558a.73.73 0 0 1-.725.725zM10.5 10.625a4.798 4.798 0 0 1-4.792-4.792A4.798 4.798 0 0 1 10.5 1.041a4.798 4.798 0 0 1 4.792 4.792 4.798 4.798 0 0 1-4.792 4.792zm0-8.334a3.55 3.55 0 0 0-3.542 3.542A3.55 3.55 0 0 0 10.5 9.375a3.55 3.55 0 0 0 3.542-3.542A3.55 3.55 0 0 0 10.5 2.291zm7.158 16.667a.63.63 0 0 1-.625-.625c0-2.875-2.933-5.208-6.533-5.208-3.6 0-6.533 2.333-6.533 5.208a.63.63 0 0 1-.625.625.63.63 0 0 1-.625-.625c0-3.558 3.491-6.458 7.783-6.458s7.783 2.9 7.783 6.458a.63.63 0 0 1-.625.625z" fill="url(#posk2juxyb)"/>
    <defs>
        <linearGradient id="zl0lg6znja" x1="10.5" y1="1.041" x2="10.5" y2="18.958" gradientUnits="userSpaceOnUse">
            <stop stop-color="#F6E848"/>
            <stop offset="1" stop-color="#ECC91D"/>
        </linearGradient>
        <linearGradient id="posk2juxyb" x1="10.5" y1=".941" x2="10.5" y2="19.058" gradientUnits="userSpaceOnUse">
            <stop stop-color="#F6E848"/>
            <stop offset="1" stop-color="#ECC91D"/>
        </linearGradient>
    </defs>
</svg>
