<svg width="21" height="20" viewBox="0 0 21 20" fill="none" xmlns="http://www.w3.org/2000/svg">
    <path d="M16.5 4.637a2.313 2.313 0 0 0-.12-.25 3.202 3.202 0 0 0-.262-.37 6.004 6.004 0 0 0-2.416-1.575l-1.966-.823a3.568 3.568 0 0 0-.262-.102h-.01l-.016-.006C8.676.451 7.11 1.145 5.881 3.98c-.016.03-.034.074-.052.117A5.49 5.49 0 0 0 1.746 9.39v4.064c0 .212.015.425.042.636.2 2.956 1.869 4.625 4.79 4.821.223.03.447.045.671.046h6.5c3.417 0 5.313-1.72 5.486-4.976.01-.172.018-.346.018-.527V9.39A5.47 5.47 0 0 0 16.5 4.637zm-1.342.179c.06.075.116.154.166.237.053.086.095.179.125.275a.7.7 0 0 1 .046.144c.037.133.06.27.067.408v.143a2.83 2.83 0 0 1-.05.513c-.02.116-.048.237-.083.363-.017.067-.034.133-.056.203-.01.032-.025.068-.035.1h-.031a4.833 4.833 0 0 0-.742-.06H9.758l1.535-3.566.287-.666 1.64.686c.732.25 1.396.668 1.938 1.22zM7.017 4.5c.666-1.539 1.296-2.211 2.327-2.211.362.009.72.07 1.064.18l-.004.01-2.006 4.66H6.435c-.18 0-.36.01-.54.03l.97-2.318v-.006l.113-.271a.476.476 0 0 0 .039-.074zm-1.85 1.182-.183.436-.634 1.508c-.054.027-.1.064-.152.093a4.875 4.875 0 0 0-.637.415 4.89 4.89 0 0 0-.343.298c-.045.043-.097.078-.14.122a4.262 4.262 0 0 1 2.089-2.872zm12.841 7.773c0 .16-.008.312-.015.463-.137 2.583-1.484 3.79-4.238 3.79H7.25a4.592 4.592 0 0 1-.55-.04c-2.342-.157-3.506-1.322-3.667-3.697a4.187 4.187 0 0 1-.036-.516v-1.622c.001-.2.02-.4.058-.598a3.417 3.417 0 0 1 3.382-2.841h8.13c.338-.002.675.046 1 .143a3.466 3.466 0 0 1 2.438 3.296l.003 1.622zm-.701-5.429c-.01-.006-.016-.014-.025-.02a4.602 4.602 0 0 0-.7-.41c-.014-.007-.025-.017-.04-.024.021-.064.033-.122.051-.185.019-.062.04-.141.059-.211.052-.198.093-.398.123-.6.005-.036.015-.075.02-.111 0-.014.005-.03.007-.044.576.589.967 1.334 1.125 2.143-.011-.012-.025-.02-.037-.033a4.679 4.679 0 0 0-.587-.505h.004z" fill="url(#1s0mp6i7aa)"/>
    <path d="M10.766 9.583v.352c.283.03.525.089.726.178.204.089.381.224.532.405.119.137.21.279.274.424.066.146.099.28.099.4a.486.486 0 0 1-.147.353.47.47 0 0 1-.35.145c-.258 0-.426-.143-.503-.428a.91.91 0 0 0-.631-.672v1.683c.328.092.588.175.782.25.195.076.37.185.523.328.165.149.29.327.377.534a1.823 1.823 0 0 1-.08 1.541c-.14.268-.347.486-.622.656-.275.17-.602.271-.98.303v.174c0 .16-.016.275-.048.348-.029.073-.095.11-.198.11-.095 0-.163-.03-.202-.09a.531.531 0 0 1-.056-.275v-.259a2.49 2.49 0 0 1-.814-.222 1.974 1.974 0 0 1-.579-.42 1.82 1.82 0 0 1-.341-.527 1.431 1.431 0 0 1-.111-.538.49.49 0 0 1 .147-.348.496.496 0 0 1 .373-.157c.119 0 .22.028.301.085a.437.437 0 0 1 .17.238c.072.221.134.391.187.51a.995.995 0 0 0 .238.32c.109.097.252.17.429.222v-1.881c-.355-.1-.65-.21-.889-.332a1.523 1.523 0 0 1-.58-.526c-.147-.226-.222-.517-.222-.873 0-.464.145-.845.433-1.141.291-.297.71-.47 1.258-.518v-.344c0-.226.083-.34.25-.34.17 0 .254.111.254.332zm-.504 2.69v-1.55a1.375 1.375 0 0 0-.52.268c-.124.11-.186.278-.186.502 0 .213.058.374.174.485.117.108.294.206.532.295zm.504 1.202v1.771c.267-.053.473-.163.619-.327a.84.84 0 0 0 .218-.575c0-.234-.071-.415-.214-.542-.14-.13-.348-.238-.623-.327z" fill="url(#z3a3otn6tb)"/>
    <defs>
        <linearGradient id="1s0mp6i7aa" x1="10.499" y1="1.041" x2="10.499" y2="18.958" gradientUnits="userSpaceOnUse">
            <stop stop-color="#F6E848"/>
            <stop offset="1" stop-color="#ECC91D"/>
        </linearGradient>
        <linearGradient id="z3a3otn6tb" x1="10.499" y1="1.041" x2="10.499" y2="18.958" gradientUnits="userSpaceOnUse">
            <stop stop-color="#F6E848"/>
            <stop offset="1" stop-color="#ECC91D"/>
        </linearGradient>
    </defs>
</svg>
