<svg xmlns="http://www.w3.org/2000/svg" width="17" height="16" viewBox="0 0 17 16" fill="none">
    <g clip-path="url(#gn65hlhe7a)">
        <path d="M14.728 15.492H6.76a1.76 1.76 0 0 1-1.758-1.758V5.766c0-.97.788-1.758 1.758-1.758h7.968c.97 0 1.758.788 1.758 1.758v7.968a1.76 1.76 0 0 1-1.758 1.758zM6.76 5.18a.587.587 0 0 0-.586.586v7.968c0 .323.262.586.586.586h7.968a.587.587 0 0 0 .586-.586V5.766a.587.587 0 0 0-.586-.586H6.76zm-2.93 5.625h-.586a.587.587 0 0 1-.586-.586V2.25c0-.323.263-.586.586-.586h7.969c.323 0 .586.263.586.586v.557h1.171V2.25A1.76 1.76 0 0 0 11.213.492h-7.97A1.76 1.76 0 0 0 1.487 2.25v7.969c0 .97.789 1.758 1.758 1.758h.586v-1.172z" fill="#000000"/>
    </g>
    <defs fill="#000000">
        <clipPath id="gn65hlhe7a" fill="#000000">
            <path fill="#000000" transform="translate(.994)" d="M0 0h16v16H0z"/>
        </clipPath>
    </defs>
</svg>